<?xml version="1.0" encoding="UTF-8" standalone="no"?>
<!-- Created with Inkscape (http://www.inkscape.org/) -->

<svg
   version="1.1"
   id="svg1"
   width="180.8"
   height="184.8"
   viewBox="0 0 180.8 184.8"
   sodipodi:docname="Cuori.svg"
   inkscape:version="1.4.2 (f4327f4, 2025-05-13)"
   xmlns:inkscape="http://www.inkscape.org/namespaces/inkscape"
   xmlns:sodipodi="http://sodipodi.sourceforge.net/DTD/sodipodi-0.dtd"
   xmlns="http://www.w3.org/2000/svg"
   xmlns:svg="http://www.w3.org/2000/svg">
  <defs
     id="defs1" />
  <sodipodi:namedview
     id="namedview1"
     pagecolor="#ffffff"
     bordercolor="#999999"
     borderopacity="1"
     inkscape:showpageshadow="2"
     inkscape:pageopacity="0"
     inkscape:pagecheckerboard="0"
     inkscape:deskcolor="#d1d1d1"
     inkscape:zoom="4.1829004"
     inkscape:cx="90.367919"
     inkscape:cy="92.400002"
     inkscape:window-width="1920"
     inkscape:window-height="991"
     inkscape:window-x="-9"
     inkscape:window-y="-9"
     inkscape:window-maximized="1"
     inkscape:current-layer="g1" />
  <g
     inkscape:groupmode="layer"
     inkscape:label="Image"
     id="g1">
    <g
       id="g2">
      <path
         style="fill:#cb1517"
         d="M 75.405461,162.65405 C 56.514752,146.38398 36.370344,118.10554 27.771545,105.3149 14.892812,86.157885 5.4983351,66.786137 6.2936631,51.314788 6.7832971,41.790039 12.650011,33.937771 18.605328,26.001984 29.900084,10.9511 50.466985,4.6144632 65.427228,11.933828 c 5.828225,2.851485 13.358197,11.342457 20.603375,22.792693 3.340939,5.28 1.150247,8.33911 7.052145,1.760777 2.932255,-3.268331 -2.100407,6.082194 2.63959,-2.027943 7.190752,-12.303379 11.055952,-18.496589 17.458102,-21.544222 15.60594,-7.4289371 40.02465,-1.247135 51.10978,15.722065 5.14525,7.876385 8.49268,18.338735 8.48555,27.647071 -0.0162,21.115771 -11.84256,46.002511 -38.18559,75.379901 -13.28196,14.81187 -23.07566,27.5141 -29.07392,32.13797 l -15.185892,11.70634 z"
         id="path6"
         sodipodi:nodetypes="ssssssssssssscs" />
      <path
         style="fill:#000000"
         d="M 84.252411,179.0326 C 75.398465,171.99833 65.685011,162.4851 51.389608,146.84721 21.812729,114.49273 10.318153,97.659345 3.5583004,76.800001 1.7148523,71.111546 1.2938122,68.178155 0.98254086,58.854656 0.54701522,45.809373 1.2864937,41.527463 5.5512138,32.400001 11.104607,20.514488 21.581654,9.6621561 32.000001,5.0038263 c 13.542232,-6.0551053 30.159818,-5.25930073 42,2.0113506 C 78.108779,9.5382367 85.070624,16.242152 88.107495,20.6 c 1.303155,1.87 2.622077,3.399357 2.930939,3.39857 0.308862,-7.87e-4 1.572144,-1.601061 2.807294,-3.556164 C 96.960654,15.511827 104.67957,8.5680023 109.8667,6.0301778 122.15038,0.02033468 137.78471,0.06594886 149.94288,6.1471027 159.84327,11.098981 168.53719,20.024435 174.35765,31.212091 178.90345,39.949702 180,44.930331 180,56.84011 c 0,20.340234 -6.97432,37.421526 -24.79392,60.7245 -9.75267,12.75372 -38.94342,44.74388 -49.67183,54.43539 -7.619934,6.88347 -13.792248,12 -14.476165,12 -0.304295,0 -3.366849,-2.23533 -6.805674,-4.9674 z m 20.845299,-23.2431 c 21.88311,-22.06664 38.94157,-41.7848 47.91823,-55.3895 11.59041,-17.565999 16.47208,-32.190086 15.5646,-46.627113 -0.50551,-8.042174 -2.45289,-14.174296 -6.5208,-20.533473 -8.63877,-13.504561 -19.22828,-19.908778 -32.82745,-19.853059 -13.64013,0.05589 -21.02754,5.505227 -31.524184,23.253891 L 91.415415,47.280491 84.091675,36.011423 C 75.938349,23.465869 71.398221,18.601442 64.833031,15.377149 60.78701,13.390068 59.595259,13.2 51.181996,13.2 c -8.876275,0 -9.42387,0.101369 -14.771154,2.734389 -7.67104,3.777245 -15.264796,11.574345 -19.485734,20.007522 -4.131084,8.253652 -5.235233,13.710408 -4.711913,23.286492 C 13.09355,75.337787 21.937456,93.8074 38.822847,114.8 c 14.5097,18.03905 49.214659,54 52.113963,54 0.692235,0 7.06464,-5.85472 14.1609,-13.0105 z"
         id="path2" />
    </g>
  </g>
</svg>
