<?xml version="1.0" encoding="UTF-8" standalone="no"?>
<!-- Created with Inkscape (http://www.inkscape.org/) -->

<svg
   version="1.1"
   id="svg1"
   width="211.2"
   height="196.8"
   viewBox="0 0 211.2 196.8"
   sodipodi:docname="Fiori.svg"
   inkscape:version="1.4.2 (f4327f4, 2025-05-13)"
   xmlns:inkscape="http://www.inkscape.org/namespaces/inkscape"
   xmlns:sodipodi="http://sodipodi.sourceforge.net/DTD/sodipodi-0.dtd"
   xmlns="http://www.w3.org/2000/svg"
   xmlns:svg="http://www.w3.org/2000/svg">
  <defs
     id="defs1" />
  <sodipodi:namedview
     id="namedview1"
     pagecolor="#ffffff"
     bordercolor="#999999"
     borderopacity="1"
     inkscape:showpageshadow="2"
     inkscape:pageopacity="0"
     inkscape:pagecheckerboard="0"
     inkscape:deskcolor="#d1d1d1"
     inkscape:zoom="3.9278455"
     inkscape:cx="105.52859"
     inkscape:cy="98.400002"
     inkscape:window-width="1920"
     inkscape:window-height="991"
     inkscape:window-x="-9"
     inkscape:window-y="-9"
     inkscape:window-maximized="1"
     inkscape:current-layer="g1" />
  <g
     inkscape:groupmode="layer"
     inkscape:label="Image"
     id="g1">
    <g
       id="g2">
      <path
         style="fill:#228534"
         d="m 78.362741,186.31772 c 0.507861,-5.68086 2.050664,-7.00516 4.245863,-12.48758 5.008319,-12.50806 4.626582,-14.83466 4.626582,-21.57329 0,-5.19164 3.133161,-2.46387 1.873447,-7.22473 l -4.236774,-3.67579 -3.886355,4.72024 c -5.036663,6.11737 -15.006885,11.74634 -21.567135,13.47417 -8.545437,2.25068 -20.825477,-2.83712 -28.821561,-7.18913 -5.638083,-3.06863 -15.841581,-7.09463 -18.88907,-13.52874 -2.42157,-5.11262 -4.108773,-9.30367 -4.108773,-17.55939 0,-7.90484 0.730534,-13.60049 2.685183,-17.77232 2.976187,-6.352096 10.558583,-16.903789 16.816284,-19.984446 2.749399,-1.353524 10.565938,-5.378666 13.769521,-5.874535 7.925023,-1.226679 16.540058,-0.99483 28.392549,3.990609 5.233466,2.20132 5.812189,2.220253 7.198255,2.220253 3.576732,0 7.465762,4.058774 7.465762,0.2339 0,-2.478749 -7.385319,-4.598878 -11.270375,-9.000142 C 65.526735,67.010102 67.752791,65.587827 64.967889,59.636629 59.022043,46.930648 61.074963,31.04845 72.032395,21.384921 79.645268,14.671011 93.737319,7.9627425 105.85459,7.9627425 c 13.11691,0 23.87543,3.4794365 32.11893,11.6148565 6.74759,6.659123 11.26374,13.91292 11.26374,23.076477 0,6.406944 -0.78307,10.318687 -2.99567,14.945925 -1.46252,3.058605 -5.18799,10.261586 -9.77391,15.672963 -4.28815,5.06 -6.12819,7.69212 -6.57832,8.649674 -1.81351,3.857802 -4.00519,7.56766 0.32731,7.56766 1.2791,0 4.91411,-2.979172 8.70015,-4.753372 15.99322,-7.494673 29.58603,-8.474703 41.27136,-2.5147 5.12111,2.611981 14.85265,13.547311 17.40572,18.997064 1.97057,4.20636 6.00714,6.5689 6.00714,14.53087 0,8.59083 1.44325,13.34018 -1.44682,19.18778 -6.7342,13.62574 -29.4478,26.34291 -44.09962,24.69015 -8.50115,-0.95894 -18.55274,1.3681 -28.37763,-10.9959 l -2.65057,-3.33557 -3.11138,2.09301 c -2.74307,1.84525 -3.24289,-2.36609 -3.64026,0.31495 -0.77927,5.25764 2.93074,10.08424 6.87824,22.64031 l 6.29405,20.01992 h -27.92404 c -12.277658,0 -27.540575,0.20697 -27.160269,-4.04709 z"
         id="path6"
         sodipodi:nodetypes="sssscssssssssssssssssssssssssscsscssscss" />
      <path
         style="fill:#000000"
         d="m 95.470893,196.20034 -31.329106,-0.21878 4.414689,-10.19078 c 6.112889,-14.11087 11.626413,-28.27455 11.180189,-28.72078 -0.20498,-0.20498 -2.839585,0.86884 -5.854678,2.38626 -12.237961,6.15906 -25.364027,7.93462 -36.608227,4.95199 C 22.023715,160.36304 7.8530655,147.05917 2.7316676,131.97902 1.0727789,127.09435 0.69705257,124.45369 0.67887913,117.5517 0.66664439,112.90513 1.0822313,107.50513 1.6024056,105.5517 5.6853421,90.21887 21.165433,75.334787 36.88249,71.629953 c 5.853374,-1.379761 17.061011,-1.572736 22.22309,-0.382643 1.928069,0.444508 3.658865,0.654912 3.846212,0.467565 0.187346,-0.187347 -0.782574,-2.16607 -2.155379,-4.397163 -4.100745,-6.66456 -5.821164,-12.494222 -6.219169,-21.073732 -0.292838,-6.312495 -0.04936,-8.769236 1.308219,-13.2 3.350938,-10.936567 11.839206,-20.630105 23.257883,-26.5603271 8.74925,-4.543871 14.55821,-5.82222212 26.438274,-5.81814956 11.97793,0.004106 15.69507,0.79870536 25.39939,5.42953636 12.30314,5.8709613 22.031,17.3569483 24.96727,29.4796203 2.61507,10.796574 0.40365,23.163237 -5.93869,33.210144 -1.1688,1.8515 -1.999,3.492459 -1.84488,3.646574 0.15411,0.154115 1.7101,-0.06334 3.45775,-0.483232 5.00192,-1.201773 17.82937,-0.955478 23.10378,0.443606 17.99849,4.774265 33.71701,21.971032 35.60226,38.950478 1.824,16.42777 -3.46443,31.21952 -14.75541,41.27086 -16.61218,14.78832 -38.31315,17.86255 -57.62109,8.1628 -3.47698,-1.74674 -6.45762,-3.17589 -6.62362,-3.17589 -0.70101,0 1.103,5.02035 7.49583,20.85999 3.72668,9.23368 6.77579,17.1376 6.77579,17.56426 0,0.46779 -3.73165,0.70015 -9.4,0.58531 -5.17,-0.10474 -23.4981,-0.28889 -40.729107,-0.40922 z M 127.26918,181 c -0.82912,-2.09 -2.65887,-6.68 -4.06612,-10.2 -6.82272,-17.06584 -7.23249,-26.54701 -1.34154,-31.04004 l 2.53848,-1.9361 7.2,5.20156 c 17.76792,12.83623 31.07706,14.96633 46.4,7.42624 14.41301,-7.09234 22.04017,-19.92945 20.98528,-35.3199 -0.54379,-7.93378 -3.06951,-13.61314 -8.74199,-19.657352 -8.94572,-9.531953 -19.47211,-13.859129 -31.08786,-12.779558 -5.59356,0.519866 -16.69583,4.039567 -23.32884,7.39583 -4.95395,2.506672 -7.86638,2.451354 -10.5175,-0.19977 -3.70705,-3.707046 -3.02269,-5.515324 6.37773,-16.85194 4.66776,-5.629164 9.29847,-11.855772 10.29046,-13.836906 4.12587,-8.239808 4.48351,-16.303173 1.12167,-25.288514 C 140.93544,28.131067 132.71352,19.586186 126.4,16.558655 117.34541,12.216703 105.17444,10.786225 95.039376,12.872783 83.838775,15.178709 72.626954,23.747931 68.2146,33.375023 c -1.73711,3.790113 -2.117301,5.780255 -2.10618,11.024978 0.02191,10.331096 3.775148,17.93005 15.634343,31.65387 6.198533,7.17313 7.019761,9.686965 4.190569,12.827617 -2.967147,3.293794 -4.657413,3.325009 -12.164566,0.224648 C 60.838902,83.766265 59.322584,83.250288 54.115389,82.418435 47.141382,81.304332 38.831495,82.530531 32.331036,85.632914 25.748849,88.774303 18.46814,96.040214 15.151242,102.77779 10.304158,112.62362 11.240708,126.2915 17.427691,136 c 3.142806,4.93164 9.898935,11.37922 14.611275,13.944 4.229993,2.30225 12.807314,4.41982 17.992954,4.44211 8.189514,0.0352 21.74459,-5.70551 31.128245,-13.18311 l 5.546361,-4.41977 2.631667,2.55072 c 1.447417,1.40289 3.030505,3.7592 3.517974,5.23624 1.642266,4.97612 -0.542731,14.42315 -6.938047,29.99728 -1.934967,4.71211 -3.518121,8.94211 -3.518121,9.4 0,0.55756 7.658756,0.83253 23.188321,0.83253 h 23.18833 z"
         id="path2" />
    </g>
  </g>
</svg>
