<?xml version="1.0" encoding="UTF-8" standalone="no"?>
<!-- Created with Inkscape (http://www.inkscape.org/) -->

<svg
   version="1.1"
   id="svg1"
   width="169.60001"
   height="218.39999"
   viewBox="0 0 169.60001 218.39999"
   sodipodi:docname="Quadri.svg"
   inkscape:version="1.4.2 (f4327f4, 2025-05-13)"
   xmlns:inkscape="http://www.inkscape.org/namespaces/inkscape"
   xmlns:sodipodi="http://sodipodi.sourceforge.net/DTD/sodipodi-0.dtd"
   xmlns="http://www.w3.org/2000/svg"
   xmlns:svg="http://www.w3.org/2000/svg">
  <defs
     id="defs1" />
  <sodipodi:namedview
     id="namedview1"
     pagecolor="#ffffff"
     bordercolor="#999999"
     borderopacity="1"
     inkscape:showpageshadow="2"
     inkscape:pageopacity="0"
     inkscape:pagecheckerboard="0"
     inkscape:deskcolor="#d1d1d1"
     inkscape:zoom="3.5393774"
     inkscape:cx="84.76067"
     inkscape:cy="109.2"
     inkscape:window-width="1920"
     inkscape:window-height="991"
     inkscape:window-x="-9"
     inkscape:window-y="-9"
     inkscape:window-maximized="1"
     inkscape:current-layer="g1" />
  <g
     inkscape:groupmode="layer"
     inkscape:label="Image"
     id="g1">
    <g
       id="g2">
      <path
         style="fill:#1f60ab"
         d="M 75.761969,179.89203 C 54.685532,166.75516 49.268465,139.93116 29.827115,123.26083 25.31444,119.39136 17.023755,112.53094 18.498151,112.6616 20.31801,112.82289 17.231997,105.33941 24.823746,99.066213 45.14635,82.273256 64.606401,60.275657 76.149779,37.674059 c 1.895915,-3.712148 8.430224,-12.397287 8.650224,-12.393886 0.22,0.0034 6.155498,9.44032 8.355498,13.719182 4.790558,9.317335 17.222639,22.230417 24.297089,30.941792 7.53624,9.280021 10.77851,15.777136 20.25264,23.710986 7.86129,6.583217 17.55541,9.890697 16.50348,16.467677 -1.06674,6.66963 -16.06633,13.16383 -20.49029,16.95604 -19.29486,16.53952 -26.7692,28.01127 -38.443417,49.83402 -2.12257,3.96775 -12.232749,32.63558 -10.192464,17.37046 -7.000854,0.8396 -5.065839,-11.73634 -9.32057,-14.3883 z"
         id="path6"
         sodipodi:nodetypes="sssssssssssscs" />
      <path
         style="fill:#000000"
         d="M 80.895286,209.39492 C 65.891494,170.8874 42.18775,140.47546 6.8967244,114.45465 l -7.10327609,-5.2374 2.30327589,-1.76696 C 3.363526,106.47845 8.1800003,102.89041 12.8,99.476863 17.471554,96.025221 26.731569,87.750883 33.662342,80.835202 55.590609,58.954685 69.319723,37.909372 81.299922,7.8117174 c 1.705045,-4.2835553 3.280081,-7.79334308 3.500081,-7.79952855 0.22,-0.00618546 1.815128,3.49854155 3.544729,7.78828225 8.121914,20.1439009 17.064408,36.4946969 28.111158,51.3995269 8.87204,11.970602 28.64317,31.452954 42.14412,41.528572 6.05,4.51506 11,8.32416 11,8.46467 0,0.14051 -3.15,2.56138 -7,5.37972 -21.83705,15.98549 -41.27819,36.16458 -54.55617,56.62704 -6.06991,9.35421 -14.588703,26.2089 -19.304707,38.19492 -1.946521,4.9472 -3.71913,8.99492 -3.93913,8.99492 -0.22,0 -1.977122,-4.04772 -3.904717,-8.99492 z m 8.304717,-29.17791 c 11.367317,-22.06217 29.669887,-44.62128 50.894007,-62.73017 l 9.65758,-8.24005 -2.33477,-2.0234 c -1.28412,-1.11286 -5.46855,-4.68524 -9.29873,-7.938609 -19.19356,-16.303066 -36.45872,-37.973301 -48.980014,-61.4769 -2.16594,-4.065665 -4.118073,-7.390134 -4.338073,-7.387708 -0.22,0.0024 -2.283781,3.555093 -4.586181,7.894817 -12.432801,23.434216 -31.091241,46.350294 -51.984567,63.84684 l -8.36528,7.00527 2.326986,2.01645 c 1.279843,1.10905 5.488807,4.70236 9.353254,7.98514 19.216002,16.32367 39.445484,41.82887 49.842807,62.84149 1.630111,3.2944 3.154895,5.9854 3.388409,5.98001 0.233515,-0.005 2.224572,-3.50332 4.424572,-7.77318 z"
         id="path2" />
    </g>
  </g>
</svg>
